<svg xmlns="http://www.w3.org/2000/svg" width="1600" height="420" viewBox="0 0 1600 420"><defs><clipPath id="card"><rect width="1600" height="420" rx="14"/></clipPath><clipPath id="vignette"><rect width="760" height="300" rx="12"/></clipPath></defs><g clip-path="url(#card)"><rect width="1600" height="420" fill="#12101A"/><text x="90" y="150" font-family="Georgia, 'Times New Roman', serif" font-size="58" fill="#C0BCD0">Neon</text><text x="92" y="196" font-family="Georgia, 'Times New Roman', serif" font-size="19" font-style="italic" fill="#555068">80s cyberpunk and synthwave</text><rect x="90" y="248" width="62" height="62" rx="14" fill="#12101A" stroke="#C0BCD0" stroke-opacity="0.18"/><text x="121.0" y="338" text-anchor="middle" font-family="'SF Mono', Menlo, Consolas, monospace" font-size="13" fill="#555068">#12101A</text><rect x="170" y="248" width="62" height="62" rx="14" fill="#FF2D95" stroke="#C0BCD0" stroke-opacity="0.18"/><text x="201.0" y="338" text-anchor="middle" font-family="'SF Mono', Menlo, Consolas, monospace" font-size="13" fill="#555068">#FF2D95</text><rect x="250" y="248" width="62" height="62" rx="14" fill="#00DDFF" stroke="#C0BCD0" stroke-opacity="0.18"/><text x="281.0" y="338" text-anchor="middle" font-family="'SF Mono', Menlo, Consolas, monospace" font-size="13" fill="#555068">#00DDFF</text><rect x="330" y="248" width="62" height="62" rx="14" fill="#88B0A0" stroke="#C0BCD0" stroke-opacity="0.18"/><text x="361.0" y="338" text-anchor="middle" font-family="'SF Mono', Menlo, Consolas, monospace" font-size="13" fill="#555068">#88B0A0</text><rect x="410" y="248" width="62" height="62" rx="14" fill="#8898B0" stroke="#C0BCD0" stroke-opacity="0.18"/><text x="441.0" y="338" text-anchor="middle" font-family="'SF Mono', Menlo, Consolas, monospace" font-size="13" fill="#555068">#8898B0</text><rect x="490" y="248" width="62" height="62" rx="14" fill="#C0BCD0" stroke="#C0BCD0" stroke-opacity="0.18"/><text x="521.0" y="338" text-anchor="middle" font-family="'SF Mono', Menlo, Consolas, monospace" font-size="13" fill="#555068">#C0BCD0</text><g transform="translate(780,60.0)" clip-path="url(#vignette)"><filter id="neon-glow" x="-50%" y="-50%" width="200%" height="200%"><feGaussianBlur stdDeviation="6"/></filter><g filter="url(#neon-glow)" opacity="0.7"><rect x="60" y="55" width="16" height="145" rx="8.0" fill="#FF2D95"/><rect x="108" y="95" width="9" height="105" rx="4.5" fill="#00DDFF"/><rect x="170" y="40" width="24" height="160" rx="12.0" fill="#00DDFF"/><rect x="232" y="105" width="9" height="95" rx="4.5" fill="#FF2D95"/><rect x="300" y="75" width="16" height="125" rx="8.0" fill="#8898B0"/><rect x="360" y="50" width="11" height="150" rx="5.5" fill="#FF2D95"/><rect x="412" y="115" width="20" height="85" rx="10.0" fill="#88B0A0"/><rect x="500" y="40" width="14" height="160" rx="7.0" fill="#00DDFF"/><rect x="552" y="85" width="9" height="115" rx="4.5" fill="#FF2D95"/><rect x="620" y="65" width="18" height="135" rx="9.0" fill="#8898B0"/><rect x="688" y="105" width="11" height="95" rx="5.5" fill="#00DDFF"/><rect x="148" y="82" width="68" height="7" rx="3.5" fill="#FF2D95"/><rect x="478" y="74" width="58" height="7" rx="3.5" fill="#FF2D95"/><rect x="338" y="130" width="56" height="7" rx="3.5" fill="#00DDFF"/></g><g><rect x="60" y="55" width="16" height="145" rx="8.0" fill="#FF2D95"/><rect x="108" y="95" width="9" height="105" rx="4.5" fill="#00DDFF"/><rect x="170" y="40" width="24" height="160" rx="12.0" fill="#00DDFF"/><rect x="232" y="105" width="9" height="95" rx="4.5" fill="#FF2D95"/><rect x="300" y="75" width="16" height="125" rx="8.0" fill="#8898B0"/><rect x="360" y="50" width="11" height="150" rx="5.5" fill="#FF2D95"/><rect x="412" y="115" width="20" height="85" rx="10.0" fill="#88B0A0"/><rect x="500" y="40" width="14" height="160" rx="7.0" fill="#00DDFF"/><rect x="552" y="85" width="9" height="115" rx="4.5" fill="#FF2D95"/><rect x="620" y="65" width="18" height="135" rx="9.0" fill="#8898B0"/><rect x="688" y="105" width="11" height="95" rx="5.5" fill="#00DDFF"/><rect x="148" y="82" width="68" height="7" rx="3.5" fill="#FF2D95"/><rect x="478" y="74" width="58" height="7" rx="3.5" fill="#FF2D95"/><rect x="338" y="130" width="56" height="7" rx="3.5" fill="#00DDFF"/></g><line x1="0" y1="200" x2="760" y2="200" stroke="#C0BCD0" stroke-opacity="0.25"/><g transform="translate(0,400) scale(1,-1)" opacity="0.22" filter="url(#neon-glow)"><rect x="60" y="55" width="16" height="145" rx="8.0" fill="#FF2D95"/><rect x="108" y="95" width="9" height="105" rx="4.5" fill="#00DDFF"/><rect x="170" y="40" width="24" height="160" rx="12.0" fill="#00DDFF"/><rect x="232" y="105" width="9" height="95" rx="4.5" fill="#FF2D95"/><rect x="300" y="75" width="16" height="125" rx="8.0" fill="#8898B0"/><rect x="360" y="50" width="11" height="150" rx="5.5" fill="#FF2D95"/><rect x="412" y="115" width="20" height="85" rx="10.0" fill="#88B0A0"/><rect x="500" y="40" width="14" height="160" rx="7.0" fill="#00DDFF"/><rect x="552" y="85" width="9" height="115" rx="4.5" fill="#FF2D95"/><rect x="620" y="65" width="18" height="135" rx="9.0" fill="#8898B0"/><rect x="688" y="105" width="11" height="95" rx="5.5" fill="#00DDFF"/><rect x="148" y="82" width="68" height="7" rx="3.5" fill="#FF2D95"/><rect x="478" y="74" width="58" height="7" rx="3.5" fill="#FF2D95"/><rect x="338" y="130" width="56" height="7" rx="3.5" fill="#00DDFF"/></g></g></g><rect x="0.5" y="0.5" width="1599" height="419" rx="14" fill="none" stroke="#C0BCD0" stroke-opacity="0.2"/></svg>
