<svg xmlns="http://www.w3.org/2000/svg" width="1600" height="420" viewBox="0 0 1600 420"><defs><clipPath id="card"><rect width="1600" height="420" rx="14"/></clipPath><clipPath id="vignette"><rect width="760" height="300" rx="12"/></clipPath></defs><g clip-path="url(#card)"><rect width="1600" height="420" fill="#1A1814"/><text x="90" y="150" font-family="Georgia, 'Times New Roman', serif" font-size="58" fill="#D4C8A0">Marquee</text><text x="92" y="196" font-family="Georgia, 'Times New Roman', serif" font-size="19" font-style="italic" fill="#6B6248">Classic Hollywood marquee lights</text><rect x="90" y="248" width="62" height="62" rx="14" fill="#1A1814" stroke="#D4C8A0" stroke-opacity="0.18"/><text x="121.0" y="338" text-anchor="middle" font-family="'SF Mono', Menlo, Consolas, monospace" font-size="13" fill="#6B6248">#1A1814</text><rect x="170" y="248" width="62" height="62" rx="14" fill="#FF8C00" stroke="#D4C8A0" stroke-opacity="0.18"/><text x="201.0" y="338" text-anchor="middle" font-family="'SF Mono', Menlo, Consolas, monospace" font-size="13" fill="#6B6248">#FF8C00</text><rect x="250" y="248" width="62" height="62" rx="14" fill="#00B7D9" stroke="#D4C8A0" stroke-opacity="0.18"/><text x="281.0" y="338" text-anchor="middle" font-family="'SF Mono', Menlo, Consolas, monospace" font-size="13" fill="#6B6248">#00B7D9</text><rect x="330" y="248" width="62" height="62" rx="14" fill="#8BAA7A" stroke="#D4C8A0" stroke-opacity="0.18"/><text x="361.0" y="338" text-anchor="middle" font-family="'SF Mono', Menlo, Consolas, monospace" font-size="13" fill="#6B6248">#8BAA7A</text><rect x="410" y="248" width="62" height="62" rx="14" fill="#7FAAAA" stroke="#D4C8A0" stroke-opacity="0.18"/><text x="441.0" y="338" text-anchor="middle" font-family="'SF Mono', Menlo, Consolas, monospace" font-size="13" fill="#6B6248">#7FAAAA</text><rect x="490" y="248" width="62" height="62" rx="14" fill="#D4C8A0" stroke="#D4C8A0" stroke-opacity="0.18"/><text x="521.0" y="338" text-anchor="middle" font-family="'SF Mono', Menlo, Consolas, monospace" font-size="13" fill="#6B6248">#D4C8A0</text><g transform="translate(780,60.0)" clip-path="url(#vignette)"><rect x="150" y="55" width="460" height="190" rx="18" fill="#D4C8A0" fill-opacity="0.08"/><rect x="150" y="55" width="460" height="190" rx="18" fill="none" stroke="#FF8C00" stroke-width="3"/><rect x="205" y="115" width="350" height="16" rx="8" fill="#00B7D9"/><rect x="245" y="152" width="270" height="12" rx="6" fill="#D4C8A0" fill-opacity="0.7"/><rect x="285" y="185" width="190" height="12" rx="6" fill="#D4C8A0" fill-opacity="0.45"/><circle cx="178" cy="78" r="5" fill="#FF8C00"/><circle cx="178" cy="222" r="5" fill="#D4C8A0"/><circle cx="210" cy="78" r="5" fill="#FF8C00"/><circle cx="210" cy="222" r="5" fill="#D4C8A0"/><circle cx="241" cy="78" r="5" fill="#FF8C00"/><circle cx="241" cy="222" r="5" fill="#D4C8A0"/><circle cx="272" cy="78" r="5" fill="#FF8C00"/><circle cx="272" cy="222" r="5" fill="#D4C8A0"/><circle cx="304" cy="78" r="5" fill="#FF8C00"/><circle cx="304" cy="222" r="5" fill="#D4C8A0"/><circle cx="336" cy="78" r="5" fill="#FF8C00"/><circle cx="336" cy="222" r="5" fill="#D4C8A0"/><circle cx="367" cy="78" r="5" fill="#FF8C00"/><circle cx="367" cy="222" r="5" fill="#D4C8A0"/><circle cx="398" cy="78" r="5" fill="#FF8C00"/><circle cx="398" cy="222" r="5" fill="#D4C8A0"/><circle cx="430" cy="78" r="5" fill="#FF8C00"/><circle cx="430" cy="222" r="5" fill="#D4C8A0"/><circle cx="462" cy="78" r="5" fill="#FF8C00"/><circle cx="462" cy="222" r="5" fill="#D4C8A0"/><circle cx="493" cy="78" r="5" fill="#FF8C00"/><circle cx="493" cy="222" r="5" fill="#D4C8A0"/><circle cx="524" cy="78" r="5" fill="#FF8C00"/><circle cx="524" cy="222" r="5" fill="#D4C8A0"/><circle cx="556" cy="78" r="5" fill="#FF8C00"/><circle cx="556" cy="222" r="5" fill="#D4C8A0"/><circle cx="588" cy="78" r="5" fill="#FF8C00"/><circle cx="588" cy="222" r="5" fill="#D4C8A0"/><circle cx="172" cy="106" r="5" fill="#FF8C00"/><circle cx="588" cy="106" r="5" fill="#D4C8A0"/><circle cx="172" cy="136" r="5" fill="#FF8C00"/><circle cx="588" cy="136" r="5" fill="#D4C8A0"/><circle cx="172" cy="166" r="5" fill="#FF8C00"/><circle cx="588" cy="166" r="5" fill="#D4C8A0"/><circle cx="172" cy="196" r="5" fill="#FF8C00"/><circle cx="588" cy="196" r="5" fill="#D4C8A0"/></g></g><rect x="0.5" y="0.5" width="1599" height="419" rx="14" fill="none" stroke="#D4C8A0" stroke-opacity="0.2"/></svg>
